<svg width="609" height="675" viewBox="0 0 609 675" fill="none" xmlns="http://www.w3.org/2000/svg">
<rect width="609" height="675" fill="black" fill-opacity="0"/>
<path d="M448.835 559.377L446.459 560.155L447.533 563.436L450.315 561.392L448.835 559.377ZM548.753 251.121L551.133 250.356L548.753 251.121ZM517.418 185.24L519.515 183.877L517.418 185.24ZM285 59V56.5H281.551L282.624 59.7779L285 59ZM21.5356 250.227L23.9117 249.45L21.5294 242.166L19.1582 249.454L21.5356 250.227ZM123.103 560.788L121.64 562.815L127.865 567.307L125.479 560.011L123.103 560.788ZM450.315 561.392C519.553 510.524 564.5 428.511 564.5 336H559.5C559.5 426.853 515.365 507.396 447.355 557.362L450.315 561.392ZM564.5 336C564.5 306.129 559.813 277.349 551.133 250.356L546.373 251.886C554.896 278.391 559.5 306.655 559.5 336H564.5ZM551.133 250.356C543.513 226.659 532.817 204.342 519.515 183.877L515.322 186.602C528.387 206.702 538.891 228.617 546.373 251.886L551.133 250.356ZM519.515 183.877C469.682 107.21 383.264 56.5 285 56.5V61.5C381.501 61.5 466.373 111.294 515.322 186.602L519.515 183.877ZM451.211 558.599L287.376 58.2221L282.624 59.7779L446.459 560.155L451.211 558.599ZM19.1582 249.454C10.2917 276.707 5.5 305.797 5.5 336H10.5C10.5 306.328 15.2069 277.761 23.9129 251.001L19.1582 249.454ZM5.5 336C5.5 429.379 51.2948 512.062 121.64 562.815L124.566 558.761C55.467 508.907 10.5 427.705 10.5 336H5.5ZM19.1594 251.004L120.727 561.565L125.479 560.011L23.9117 249.45L19.1594 251.004Z" fill="#42444C"/>
<path d="M285 59C162.658 59 58.9755 135.89 23.2754 246.348" stroke="#42444C" stroke-width="9"/>
<path d="M114.067 565.114C161.797 599.646 220.458 623 283.872 623C347.784 623 406.868 602.325 454.799 567.298C478.036 550.316 498.653 529.961 515.927 506.954" stroke="#42444C" stroke-width="9"/>
<path d="M453.858 562.012C473.378 514.583 484.144 462.628 484.144 408.159C484.144 259.307 403.743 129.235 284 59" stroke="#42444C"/>
<path d="M118.287 562.012C98.7664 514.583 88.0001 462.628 88.0001 408.159C88.0001 259.307 168.401 129.235 288.145 59" stroke="#42444C"/>
<path d="M25.1001 249.81C37.1854 299.654 59.0137 348.015 91.0301 392.082C178.523 512.505 320.023 570.478 458.181 556.915" stroke="#42444C"/>
<path d="M120.402 564.559C171.541 568.468 224.28 562.652 276.084 545.82C417.65 499.822 516.511 383.162 546.306 247.575" stroke="#42444C"/>
<path d="M456.596 561.536C455.324 552.373 454.355 543.103 453.7 533.736C446.036 424.132 482.784 321.679 548.624 244" stroke="#42444C"/>
<path d="M120.34 558.103C128.732 554.208 137.313 550.571 146.079 547.206C248.653 507.832 357.374 513.02 450.908 553.272" stroke="#42444C"/>
<path d="M284.658 63.9355C280.018 71.9395 275.075 79.841 269.824 87.6254C208.385 178.713 116.35 236.823 16.6436 257.499" stroke="#42444C"/>
<path fill-rule="evenodd" clip-rule="evenodd" d="M22 263C28.6274 263 34 257.627 34 251C34 244.373 28.6274 239 22 239C15.3726 239 10 244.373 10 251C10 257.627 15.3726 263 22 263Z" fill="#25262D" stroke="#EF4F50" stroke-width="3"/>
<path fill-rule="evenodd" clip-rule="evenodd" d="M456 571C461.523 571 466 566.523 466 561C466 555.477 461.523 551 456 551C450.477 551 446 555.477 446 561C446 566.523 450.477 571 456 571Z" fill="#25262D" stroke="#EF4F50" stroke-width="3"/>
<path fill-rule="evenodd" clip-rule="evenodd" d="M115 573C121.075 573 126 568.075 126 562C126 555.925 121.075 551 115 551C108.925 551 104 555.925 104 562C104 568.075 108.925 573 115 573Z" fill="#25262D" stroke="#EF4F50" stroke-width="3"/>
<path fill-rule="evenodd" clip-rule="evenodd" d="M548 257C552.971 257 557 252.971 557 248C557 243.029 552.971 239 548 239C543.029 239 539 243.029 539 248C539 252.971 543.029 257 548 257Z" fill="#25262D" stroke="#EF4F50" stroke-width="3"/>
<path fill-rule="evenodd" clip-rule="evenodd" d="M283 67C287.418 67 291 63.4183 291 59C291 54.5817 287.418 51 283 51C278.582 51 275 54.5817 275 59C275 63.4183 278.582 67 283 67Z" fill="#25262D" stroke="#EF4F50" stroke-width="3"/>
</svg>
